<?xml version="1.0" encoding="utf-8"?>
<!-- Generator: Adobe Illustrator 25.4.1, SVG Export Plug-In . SVG Version: 6.00 Build 0)  -->
<svg version="1.1" id="Layer_1" xmlns="http://www.w3.org/2000/svg" xmlns:xlink="http://www.w3.org/1999/xlink" x="0px" y="0px"
	 viewBox="0 0 402 544.6" style="enable-background:new 0 0 402 544.6;" xml:space="preserve">
<style type="text/css">
	.st0{fill:#006F95;}
	.st1{fill:#D2970E;}
	.st2{fill:#EABC69;}
</style>
<g>
	<g>
		<g>
			<polygon class="st0" points="188.7,55.7 121,55.7 121,78.3 143.6,78.3 143.6,189.2 166.1,189.2 166.1,78.3 188.7,78.3 			"/>
			<path class="st0" d="M254.2,55.7h-27.5c-13.3,0-24.1,10.8-24.1,24.1v85.3c0,13.3,10.8,24.1,24.1,24.1h27.5
				c13.3,0,24.1-10.8,24.1-24.1V79.8C278.3,66.5,267.5,55.7,254.2,55.7z M256.4,159.3c0,4.1-3.3,7.4-7.4,7.4h-16.4
				c-4.1,0-7.4-3.3-7.4-7.4V85.7c0-4.1,3.3-7.4,7.4-7.4H249c4.1,0,7.4,3.3,7.4,7.4V159.3z"/>
			<path class="st0" d="M88.6,144.6v14.7c0,4.1-3.3,7.4-7.4,7.4h-9.6c-4.1,0-7.4-3.3-7.4-7.4V85.7c0-4.1,3.3-7.4,7.4-7.4h9.6
				c4.1,0,7.4,3.3,7.4,7.4v14.2h21.9V79.8c0-13.3-10.8-24.1-24.1-24.1H65.7c-13.3,0-24.1,10.8-24.1,24.1v85.3
				c0,13.3,10.8,24.1,24.1,24.1h20.7c13.3,0,24.1-10.8,24.1-24.1v-20.6H88.6z"/>
			<path class="st0" d="M367.2,96.9V79.8c0-13.3-10.8-24.1-24.1-24.1h-20.4c-13.3,0-24.1,10.8-24.1,24.1c0,0,0,29,0,29.2
				c0,2.3-0.2,5.9,5.3,10.8c5.6,4.9,32.9,21.8,36.6,24.3c3.7,2.5,4.7,4.2,4.7,7.1v8c0,4.1-3.3,7.4-7.4,7.4h-9.3
				c-4.1,0-7.4-3.3-7.4-7.4v-14.6h-22.6v20.5c0,13.3,10.8,24.1,24.1,24.1h20.4c13.3,0,24.1-10.8,24.1-24.1v-22.6h0
				c-0.1-5-1-10-6-13.4c-5.6-3.8-32.6-20.6-35.3-22.6c-2.8-2-4.7-3-4.7-6.6V85.7c0-4.1,3.3-7.4,7.4-7.4h9.3c4.1,0,7.4,3.3,7.4,7.4
				v11.2H367.2z"/>
		</g>
	</g>
	<g>
		<g>
			<path class="st1" d="M166.8,368.3h-27.5c-13.3,0-24.1,10.8-24.1,24.1v85.3c0,13.3,10.8,24.1,24.1,24.1h27.5
				c13.3,0,24.1-10.8,24.1-24.1v-85.3C190.9,379.1,180.1,368.3,166.8,368.3z M169,471.8c0,4.1-3.3,7.4-7.4,7.4h-16.4
				c-4.1,0-7.4-3.3-7.4-7.4v-73.6c0-4.1,3.3-7.4,7.4-7.4h16.4c4.1,0,7.4,3.3,7.4,7.4V471.8z"/>
			<path class="st1" d="M264.2,368.3h-27.5c-13.3,0-24.1,10.8-24.1,24.1v85.3c0,13.3,10.8,24.1,24.1,24.1h27.5
				c13.3,0,24.1-10.8,24.1-24.1v-85.3C288.3,379.1,277.5,368.3,264.2,368.3z M266.3,471.8c0,4.1-3.3,7.4-7.4,7.4h-16.4
				c-4.1,0-7.4-3.3-7.4-7.4v-73.6c0-4.1,3.3-7.4,7.4-7.4h16.4c4.1,0,7.4,3.3,7.4,7.4V471.8z"/>
			<path class="st1" d="M95.1,414v-21.6c0-13.3-10.8-24.1-24.1-24.1H49.1c-13.3,0-24.1,10.8-24.1,24.1v85.3
				c0,13.3,10.8,24.1,24.1,24.1h46v-69.7H60.8v22.2h12.4v24.9H55c-4.1,0-7.4-3.3-7.4-7.4v-73.6c0-4.1,3.3-7.4,7.4-7.4h10.8
				c4.1,0,7.4,3.3,7.4,7.4V414H95.1z"/>
			<path class="st1" d="M356,368.3h-46v133.5h47.9c15.4,0,26-10.6,26-26v-79.7C383.8,380.8,371.3,368.3,356,368.3z M361.2,470
				c0,5.1-4.1,9.3-9.3,9.3h-19.6v-88.4h19.6c5.1,0,9.3,4.2,9.3,9.3V470z"/>
		</g>
	</g>
	<g>
		<g>
			<polygon class="st2" points="138.9,235.4 138.9,212.8 81.4,212.8 81.4,346.3 103.9,346.3 103.9,291 134.5,291 134.5,268.4 
				103.9,268.4 103.9,235.4 			"/>
			<path class="st2" d="M205.9,212.8h-27.5c-13.3,0-24.1,10.8-24.1,24.1v85.3c0,13.3,10.8,24.1,24.1,24.1h27.5
				c13.3,0,24.1-10.8,24.1-24.1v-85.3C230,223.6,219.2,212.8,205.9,212.8z M208.1,316.3c0,4.1-3.3,7.4-7.4,7.4h-16.4
				c-4.1,0-7.4-3.3-7.4-7.4v-73.6c0-4.1,3.3-7.4,7.4-7.4h16.4c4.1,0,7.4,3.3,7.4,7.4V316.3z"/>
			<path class="st2" d="M327.4,346.3l-16.5-47.1c8.2-4.1,13.2-12.5,13.2-23.1v-35.5c0-15.4-12.5-27.8-27.8-27.8h-43.8v36.6v52.7
				v44.2H275v-44.2h15.3l15.5,43.3L327.4,346.3z M275,235.4h17.3c5.1,0,9.3,4.2,9.3,9.3v25.6c0,5.1-4.1,9.3-9.3,9.3H275V235.4z"/>
		</g>
	</g>
</g>
</svg>
